<svg xmlns="http://www.w3.org/2000/svg" x="0px" y="0px"
width="50" height="50"
viewBox="0 0 172 172"
style=" fill:#000000;"><g fill="none" fill-rule="nonzero" stroke="none" stroke-width="1" stroke-linecap="butt" stroke-linejoin="miter" stroke-miterlimit="10" stroke-dasharray="" stroke-dashoffset="0" font-family="none" font-weight="none" font-size="none" text-anchor="none" style="mix-blend-mode: normal"><path d="M0,172v-172h172v172z" fill="none"></path><g fill="#ffffff"><path d="M135.9144,51.8752c-0.688,-2.2016 -1.548,-4.3344 -2.6144,-6.3984v-0.0344l27.4856,-23.2544l-33.6088,14.4136c-6.2952,-7.1552 -15.2392,-12.6936 -25.9032,-15.6864l-2.1328,-10.5952h-26.2816l-2.1328,10.5952c-10.664,2.9928 -19.608,8.5312 -25.9032,15.6864l-33.6088,-14.4136l27.4856,23.2888c-0.4472,0.8944 -0.8944,1.7888 -1.2384,2.7176c-3.5432,0.2408 -16.8216,4.9192 -16.8216,58.4456c0,0.7568 0.2064,19.0232 18.5072,33.6432l0.5848,0.4816l18.748,4.6784v-2.2704l13.7256,6.8456h0.0344l4.5408,11.6616h18.4384l4.5408,-11.6616h0.0344l13.7256,-6.8456v2.2704l18.748,-4.6784l0.5848,-0.4816c18.3008,-14.62 18.5072,-32.8864 18.5072,-33.6432c0,-45.236 -10.6984,-53.3888 -15.4456,-54.7648zM127.8648,50.052c1.8576,4.0592 2.8552,8.428 2.8552,12.9688v8.084l-7.912,10.5264l-20.296,-10.1136zM75.4392,76.196l10.5608,7.052l10.5608,-7.052l10.8704,5.4352c-14.0696,3.3024 -28.7928,3.3024 -42.8624,0zM79.4984,70.6576l2.4424,-12.1776h8.1184l2.4424,12.1776l-6.5016,4.3344zM98.556,65.8416l-1.7544,-8.7376l24.4928,-10.492zM78.5008,17.2h14.9984l2.5112,12.6248l-4.5408,4.5752h-10.9392l-4.5408,-4.5752zM69.1784,28.6552l-0.688,3.44l9.2192,9.1848h16.5808l9.2192,-9.1848l-0.688,-3.44c7.0176,2.4424 13.0032,6.192 17.6128,10.836l-28.2424,12.1088h-12.384l-28.2424,-12.1088c4.6096,-4.644 10.5952,-8.3936 17.6128,-10.836zM75.1984,57.104l-1.7544,8.7376l-22.7384,-19.2296zM41.28,63.0208c0,-4.5408 0.9976,-8.9096 2.8552,-12.9688l25.3528,21.4656l-20.296,10.1136l-7.912,-10.5264zM51.6,136.6368l-6.88,-1.72v-17.9568h-6.88v12.6936c-10.0792,-11.1112 -10.32,-22.4632 -10.32,-23.0136c0,-29.24 3.956,-42.0368 7.0864,-47.5408c-0.1376,1.3072 -0.2064,2.6144 -0.2064,3.9216v10.3544l10.32,13.7944v17.0624l6.88,10.32zM51.6,88.1328l3.7496,-1.8576c0,0 0,0 0.0344,0c9.9072,3.1304 20.2616,4.7128 30.616,4.7128c10.3544,0 20.7088,-1.5824 30.616,-4.7128c0.0344,0 0.0344,0 0.0344,0l3.7496,1.8576v12.9344l-17.0624,8.5312l-17.3376,-10.4232l-17.3376,10.4232l-17.0624,-8.5312zM58.48,135.5016v-23.0136l-0.2752,-0.4128l6.9144,3.44c-0.4128,5.2288 -0.4472,17.4064 6.8112,26.6944zM90.5408,154.8h-9.0816l-1.9608,-5.0912l5.0224,-8.6688h2.9584l5.0224,8.6688zM94.0496,138.6664l-2.6488,-4.5064h-10.8016l-2.6144,4.5064c-6.6048,-7.74 -6.2952,-19.0232 -5.9512,-23.0824l13.9664,-8.3592l13.9664,8.3592c0.3784,4.0592 0.688,15.3424 -5.9168,23.0824zM113.52,112.488v23.0136l-13.4504,6.708c7.2584,-9.288 7.224,-21.4656 6.8112,-26.6944l6.9144,-3.44zM134.16,129.6536v-12.6936h-6.88v17.9568l-6.88,1.72v-22.0848l6.88,-10.32v-17.0624l10.32,-13.7944v-10.8704c3.0616,5.2632 6.88,17.2344 6.88,44.1352c0,0.1376 -0.1376,11.7648 -10.32,23.0136zM98.212,124.4248l-3.784,5.7104l-8.428,-5.6072l-8.428,5.6072l-3.784,-5.7104l12.212,-8.1528z"></path></g></g></svg>
